<svg width="24" height="24" viewBox="0 0 24 24" fill="none" xmlns="http://www.w3.org/2000/svg">
<path d="M9.44699 15.398C9.36814 15.3367 9.27781 15.2917 9.18133 15.2657C9.08485 15.2397 8.98415 15.2333 8.88515 15.2468C8.78614 15.2603 8.69083 15.2934 8.60482 15.3443C8.5188 15.3951 8.4438 15.4626 8.38424 15.5428C8.32467 15.623 8.28173 15.7144 8.25795 15.8114C8.23416 15.9084 8.23001 16.0093 8.24573 16.1079C8.26145 16.2066 8.29673 16.3011 8.34949 16.386C8.40226 16.4708 8.47145 16.5443 8.55299 16.602C9.54826 17.3461 10.7573 17.7488 12 17.75C13.2427 17.7488 14.4517 17.3461 15.447 16.602C15.5285 16.5443 15.5977 16.4708 15.6505 16.386C15.7033 16.3011 15.7385 16.2066 15.7543 16.1079C15.77 16.0093 15.7658 15.9084 15.742 15.8114C15.7182 15.7144 15.6753 15.623 15.6157 15.5428C15.5562 15.4626 15.4812 15.3951 15.3952 15.3443C15.3091 15.2934 15.2138 15.2603 15.1148 15.2468C15.0158 15.2333 14.9151 15.2397 14.8186 15.2657C14.7222 15.2917 14.6318 15.3367 14.553 15.398C13.8162 15.95 12.9206 16.2489 12 16.25C11.0794 16.2489 10.1838 15.95 9.44699 15.398Z" fill="#686C86"/>
<path fill-rule="evenodd" clip-rule="evenodd" d="M12 1.25C11.292 1.25 10.649 1.453 9.95 1.792C9.276 2.12 8.496 2.604 7.523 3.208L5.456 4.491C4.536 5.063 3.797 5.521 3.229 5.956C2.64 6.406 2.188 6.866 1.861 7.463C1.535 8.058 1.389 8.692 1.318 9.441C1.25 10.166 1.25 11.054 1.25 12.167V13.78C1.25 15.684 1.25 17.187 1.403 18.362C1.559 19.567 1.889 20.54 2.633 21.309C3.38 22.082 4.33 22.428 5.508 22.591C6.648 22.75 8.106 22.75 9.942 22.75H14.058C15.894 22.75 17.352 22.75 18.492 22.591C19.669 22.428 20.62 22.082 21.368 21.309C22.111 20.54 22.441 19.567 22.598 18.362C22.75 17.187 22.75 15.684 22.75 13.78V12.167C22.75 11.054 22.75 10.167 22.682 9.441C22.612 8.691 22.465 8.058 22.139 7.463C21.812 6.866 21.359 6.407 20.771 5.956C20.203 5.52 19.465 5.063 18.544 4.491L16.477 3.208C15.504 2.604 14.724 2.12 14.049 1.792C13.352 1.452 12.709 1.25 12 1.25ZM8.28 4.504C9.295 3.874 10.01 3.432 10.607 3.141C11.188 2.858 11.6 2.75 12 2.75C12.4 2.75 12.812 2.858 13.393 3.141C13.991 3.431 14.705 3.874 15.72 4.504L17.72 5.745C18.681 6.342 19.356 6.761 19.86 7.147C20.349 7.522 20.63 7.831 20.823 8.183C21.016 8.536 21.129 8.949 21.188 9.581C21.249 10.229 21.25 11.046 21.25 12.204V13.725C21.25 15.695 21.248 17.101 21.11 18.168C20.974 19.216 20.717 19.824 20.29 20.267C19.865 20.706 19.287 20.967 18.286 21.106C17.26 21.248 15.907 21.25 14 21.25H10C8.092 21.25 6.74 21.248 5.714 21.106C4.713 20.966 4.135 20.706 3.711 20.266C3.283 19.824 3.026 19.216 2.891 18.168C2.751 17.101 2.75 15.696 2.75 13.725V12.204C2.75 11.046 2.75 10.229 2.812 9.581C2.871 8.949 2.984 8.536 3.177 8.183C3.37 7.831 3.651 7.522 4.141 7.147C4.644 6.761 5.319 6.342 6.28 5.745L8.28 4.504Z" fill="#686C86"/>
</svg>
