<svg width="20" height="20" viewBox="0 0 20 20" fill="none" xmlns="http://www.w3.org/2000/svg">
<path d="M3.3335 8.45249C3.3335 4.70499 6.3185 1.66666 10.0002 1.66666C13.6818 1.66666 16.6668 4.70499 16.6668 8.45249C16.6668 12.1708 14.5393 16.5108 11.2193 18.0617C10.8377 18.2403 10.4215 18.333 10.0002 18.333C9.5788 18.333 9.16259 18.2403 8.781 18.0617C5.461 16.51 3.3335 12.1717 3.3335 8.45332V8.45249Z" stroke="white" stroke-opacity="0.6" stroke-width="1.5"/>
<path d="M10 10.8333C11.3807 10.8333 12.5 9.71402 12.5 8.33331C12.5 6.9526 11.3807 5.83331 10 5.83331C8.61929 5.83331 7.5 6.9526 7.5 8.33331C7.5 9.71402 8.61929 10.8333 10 10.8333Z" stroke="white" stroke-opacity="0.6" stroke-width="1.5"/>
</svg>
