<svg width="24" height="24" viewBox="0 0 24 24" fill="none" xmlns="http://www.w3.org/2000/svg">
<path d="M12 6C12.1989 6 12.3897 6.07902 12.5303 6.21967C12.671 6.36032 12.75 6.55109 12.75 6.75V9H15C15.1989 9 15.3897 9.07902 15.5303 9.21967C15.671 9.36032 15.75 9.55109 15.75 9.75C15.75 9.94891 15.671 10.1397 15.5303 10.2803C15.3897 10.421 15.1989 10.5 15 10.5H12.75V12.75C12.75 12.9489 12.671 13.1397 12.5303 13.2803C12.3897 13.421 12.1989 13.5 12 13.5C11.8011 13.5 11.6103 13.421 11.4697 13.2803C11.329 13.1397 11.25 12.9489 11.25 12.75V10.5H9C8.80109 10.5 8.61032 10.421 8.46967 10.2803C8.32902 10.1397 8.25 9.94891 8.25 9.75C8.25 9.55109 8.32902 9.36032 8.46967 9.21967C8.61032 9.07902 8.80109 9 9 9H11.25V6.75C11.25 6.55109 11.329 6.36032 11.4697 6.21967C11.6103 6.07902 11.8011 6 12 6ZM21 10.5C21 14.811 16.3545 19.524 13.7385 21.837C13.2602 22.2642 12.6413 22.5003 12 22.5003C11.3587 22.5003 10.7398 22.2642 10.2615 21.837C7.6455 19.524 3 14.811 3 10.5C3 9.3181 3.23279 8.14778 3.68508 7.05585C4.13738 5.96392 4.80031 4.97177 5.63604 4.13604C6.47177 3.30031 7.46392 2.63738 8.55585 2.18508C9.64778 1.73279 10.8181 1.5 12 1.5C13.1819 1.5 14.3522 1.73279 15.4442 2.18508C16.5361 2.63738 17.5282 3.30031 18.364 4.13604C19.1997 4.97177 19.8626 5.96392 20.3149 7.05585C20.7672 8.14778 21 9.3181 21 10.5ZM19.5 10.5C19.5 8.51088 18.7098 6.60322 17.3033 5.1967C15.8968 3.79018 13.9891 3 12 3C10.0109 3 8.10322 3.79018 6.6967 5.1967C5.29018 6.60322 4.5 8.51088 4.5 10.5C4.5 12.162 5.4225 14.0925 6.855 16.0245C8.256 17.9115 9.9855 19.59 11.2545 20.7135C11.4587 20.8986 11.7244 21.0011 12 21.0011C12.2756 21.0011 12.5413 20.8986 12.7455 20.7135C14.0145 19.59 15.7455 17.913 17.145 16.0245C18.5775 14.0925 19.5 12.162 19.5 10.5Z" fill="white"/>
</svg>
