<svg width="48" height="48" viewBox="0 0 48 48" fill="none" xmlns="http://www.w3.org/2000/svg">
<path fill-rule="evenodd" clip-rule="evenodd" d="M15.196 8.974C15.73 6.354 18.062 4.5 20.732 4.5H27.268C29.938 4.5 32.268 6.354 32.804 8.974C32.8631 9.2625 33.0175 9.52274 33.2424 9.71284C33.4673 9.90293 33.7497 10.0118 34.044 10.022H34.11C36.916 10.146 39.072 10.49 40.872 11.672C42.006 12.416 42.982 13.372 43.742 14.49C44.688 15.878 45.104 17.474 45.304 19.402C45.5 21.288 45.5 23.65 45.5 26.642V26.812C45.5 29.804 45.5 32.168 45.304 34.052C45.104 35.98 44.688 37.576 43.742 38.966C42.9796 40.0846 42.0044 41.0422 40.872 41.784C39.466 42.706 37.852 43.114 35.896 43.308C33.98 43.5 31.578 43.5 28.526 43.5H19.474C16.422 43.5 14.02 43.5 12.104 43.308C10.148 43.114 8.534 42.708 7.128 41.784C5.99541 41.0416 5.02018 40.0834 4.258 38.964C3.312 37.576 2.896 35.98 2.696 34.052C2.5 32.168 2.5 29.804 2.5 26.812V26.642C2.5 23.65 2.5 21.288 2.696 19.402C2.896 17.474 3.312 15.878 4.258 14.49C5.02018 13.3706 5.99541 12.4124 7.128 11.67C8.928 10.49 11.084 10.146 13.89 10.024L13.924 10.022H13.956C14.2503 10.0118 14.5326 9.90293 14.7576 9.71284C14.9825 9.52274 15.1369 9.2625 15.196 8.974ZM20.732 7.5C19.452 7.5 18.378 8.386 18.136 9.572C17.746 11.492 16.042 13.004 13.992 13.022C11.296 13.142 9.852 13.472 8.772 14.18C7.96976 14.7064 7.27869 15.3853 6.738 16.178C6.186 16.988 5.854 18.026 5.678 19.712C5.502 21.424 5.5 23.632 5.5 26.728C5.5 29.824 5.5 32.03 5.68 33.742C5.854 35.428 6.186 36.466 6.74 37.278C7.276 38.066 7.966 38.746 8.774 39.274C9.608 39.822 10.676 40.152 12.402 40.324C14.15 40.498 16.402 40.5 19.556 40.5H28.444C31.596 40.5 33.848 40.5 35.598 40.324C37.324 40.152 38.392 39.824 39.226 39.276C40.034 38.746 40.726 38.066 41.262 37.276C41.814 36.466 42.146 35.428 42.322 33.742C42.498 32.03 42.5 29.822 42.5 26.728C42.5 23.632 42.5 21.424 42.32 19.712C42.146 18.026 41.814 16.988 41.26 16.178C40.7199 15.3842 40.0288 14.7046 39.226 14.178C38.15 13.472 36.706 13.142 34.006 13.022C31.958 13.002 30.254 11.494 29.864 9.572C29.736 8.98054 29.4078 8.45138 28.9348 8.07388C28.4619 7.69638 27.8731 7.49368 27.268 7.5H20.732ZM24 18.5C24.3978 18.5 24.7794 18.658 25.0607 18.9393C25.342 19.2206 25.5 19.6022 25.5 20V24.5H30C30.3978 24.5 30.7794 24.658 31.0607 24.9393C31.342 25.2206 31.5 25.6022 31.5 26C31.5 26.3978 31.342 26.7794 31.0607 27.0607C30.7794 27.342 30.3978 27.5 30 27.5H25.5V32C25.5 32.3978 25.342 32.7794 25.0607 33.0607C24.7794 33.342 24.3978 33.5 24 33.5C23.6022 33.5 23.2206 33.342 22.9393 33.0607C22.658 32.7794 22.5 32.3978 22.5 32V27.5H18C17.6022 27.5 17.2206 27.342 16.9393 27.0607C16.658 26.7794 16.5 26.3978 16.5 26C16.5 25.6022 16.658 25.2206 16.9393 24.9393C17.2206 24.658 17.6022 24.5 18 24.5H22.5V20C22.5 19.6022 22.658 19.2206 22.9393 18.9393C23.2206 18.658 23.6022 18.5 24 18.5ZM34.5 20C34.5 19.6022 34.658 19.2206 34.9393 18.9393C35.2206 18.658 35.6022 18.5 36 18.5H38C38.3978 18.5 38.7794 18.658 39.0607 18.9393C39.342 19.2206 39.5 19.6022 39.5 20C39.5 20.3978 39.342 20.7794 39.0607 21.0607C38.7794 21.342 38.3978 21.5 38 21.5H36C35.6022 21.5 35.2206 21.342 34.9393 21.0607C34.658 20.7794 34.5 20.3978 34.5 20Z" fill="#686C86"/>
</svg>
