<svg width="20" height="20" viewBox="0 0 20 20" fill="none" xmlns="http://www.w3.org/2000/svg">
<g opacity="0.8">
<path d="M7.5 4.375C7.33424 4.375 7.17527 4.44085 7.05806 4.55806C6.94085 4.67527 6.875 4.83424 6.875 5C6.875 5.16576 6.94085 5.32473 7.05806 5.44194C7.17527 5.55915 7.33424 5.625 7.5 5.625H12.5C12.6658 5.625 12.8247 5.55915 12.9419 5.44194C13.0592 5.32473 13.125 5.16576 13.125 5C13.125 4.83424 13.0592 4.67527 12.9419 4.55806C12.8247 4.44085 12.6658 4.375 12.5 4.375H7.5Z" fill="white"/>
<path fill-rule="evenodd" clip-rule="evenodd" d="M9.9525 1.04163C8.225 1.04163 6.86417 1.04163 5.80083 1.18579C4.70917 1.33413 3.83833 1.64579 3.15417 2.33746C2.47083 3.02829 2.16417 3.90579 2.0175 5.00579C1.875 6.07996 1.875 7.45413 1.875 9.20079V13.4491C1.875 14.7058 1.875 15.7 1.955 16.4491C2.03417 17.1891 2.20333 17.8566 2.68833 18.3033C3.07667 18.6616 3.56833 18.8866 4.09333 18.9475C4.74917 19.0225 5.36167 18.7091 5.96583 18.2808C6.57667 17.8491 7.3175 17.1933 8.2525 16.3666L8.2825 16.34C8.71583 15.9566 9.00917 15.6983 9.25417 15.5183C9.49083 15.3458 9.635 15.2833 9.75667 15.2583C9.91734 15.2266 10.0827 15.2266 10.2433 15.2583C10.365 15.2833 10.51 15.3458 10.7458 15.5183C10.9908 15.6975 11.2842 15.9566 11.7175 16.34L11.7483 16.3666C12.6825 17.1933 13.4233 17.8491 14.0342 18.2816C14.6383 18.7091 15.2508 19.0225 15.9067 18.9475C16.4314 18.8871 16.9235 18.6615 17.3117 18.3033C17.7958 17.8566 17.9658 17.1891 18.045 16.4491C18.125 15.7 18.125 14.7058 18.125 13.4491V9.20079C18.125 7.45413 18.125 6.07913 17.9825 5.00579C17.8358 3.90579 17.5292 3.02829 16.8458 2.33746C16.1617 1.64579 15.2908 1.33413 14.1992 1.18579C13.1358 1.04163 11.775 1.04163 10.0475 1.04163H9.9525ZM4.04167 3.21663C4.45583 2.79829 5.01833 2.55413 5.96833 2.42496C6.9375 2.29329 8.21333 2.29163 9.99917 2.29163C11.785 2.29163 13.0608 2.29329 14.03 2.42496C14.98 2.55413 15.5425 2.79829 15.9567 3.21663C16.3717 3.63579 16.6142 4.20663 16.7425 5.17079C16.8725 6.15246 16.8742 7.44329 16.8742 9.24829V13.4091C16.8742 14.7141 16.8733 15.6425 16.8017 16.3158C16.7267 17.0075 16.5908 17.2666 16.4642 17.3841C16.2692 17.5633 16.0242 17.6758 15.7642 17.705C15.5975 17.7241 15.3192 17.66 14.7558 17.2616C14.2075 16.8725 13.5167 16.2633 12.545 15.4033L12.5233 15.3841C12.1167 15.025 11.78 14.7275 11.4825 14.5091C11.1717 14.2825 10.8583 14.1075 10.4892 14.0333C10.1657 13.9682 9.83259 13.9682 9.50917 14.0333C9.14 14.1083 8.82583 14.2825 8.51583 14.51C8.21833 14.7266 7.88167 15.025 7.475 15.3841L7.45333 15.4033C6.48167 16.2633 5.79083 16.8725 5.2425 17.2616C4.67917 17.66 4.40083 17.7241 4.23417 17.705C3.97271 17.675 3.72757 17.5626 3.53417 17.3841C3.4075 17.2666 3.27083 17.0075 3.1975 16.3158C3.125 15.6416 3.12417 14.7141 3.12417 13.4091V9.24746C3.12417 7.44329 3.12583 6.15246 3.25583 5.17079C3.38417 4.20663 3.62667 3.63579 4.04167 3.21663Z" fill="white"/>
</g>
</svg>
