<svg width="24" height="24" viewBox="0 0 24 24" fill="none" xmlns="http://www.w3.org/2000/svg">
<path d="M19.7389 4.261C18.4511 2.97332 16.7045 2.24991 14.8834 2.24991C13.0622 2.24991 11.3157 2.97332 10.0279 4.261L9.30789 4.982C9.17541 5.12418 9.10328 5.31223 9.10671 5.50653C9.11014 5.70083 9.18885 5.88621 9.32627 6.02363C9.46368 6.16104 9.64906 6.23975 9.84336 6.24318C10.0377 6.24661 10.2257 6.17448 10.3679 6.042L11.0879 5.322C11.5854 4.81978 12.1772 4.42079 12.8294 4.14795C13.4816 3.87512 14.1812 3.73381 14.8881 3.73214C15.5951 3.73048 16.2953 3.86849 16.9488 4.13825C17.6022 4.40801 18.1959 4.80421 18.6958 5.30409C19.1957 5.80396 19.5919 6.39767 19.8616 7.05111C20.1314 7.70455 20.2694 8.40484 20.2677 9.11177C20.2661 9.8187 20.1248 10.5183 19.8519 11.1705C19.5791 11.8227 19.1801 12.4145 18.6779 12.912L17.9579 13.632C17.8254 13.7742 17.7533 13.9622 17.7567 14.1565C17.7601 14.3508 17.8389 14.5362 17.9763 14.6736C18.1137 14.811 18.2991 14.8898 18.4934 14.8932C18.6877 14.8966 18.8757 14.8245 19.0179 14.692L19.7379 13.972C21.0253 12.6842 21.7485 10.9379 21.7485 9.117C21.7485 7.29611 21.0253 5.54976 19.7379 4.262L19.7389 4.261ZM6.04289 9.307C6.18334 9.44763 6.26223 9.63825 6.26223 9.837C6.26223 10.0358 6.18334 10.2264 6.04289 10.367L5.32189 11.089C4.81966 11.5865 4.42067 12.1784 4.14784 12.8305C3.875 13.4827 3.73369 14.1823 3.73203 14.8892C3.73036 15.5962 3.86837 16.2965 4.13814 16.9499C4.4079 17.6033 4.80409 18.197 5.30397 18.6969C5.80385 19.1968 6.39755 19.593 7.05099 19.8628C7.70443 20.1325 8.40472 20.2705 9.11165 20.2689C9.81858 20.2672 10.5182 20.1259 11.1704 19.8531C11.8225 19.5802 12.4144 19.1812 12.9119 18.679L13.6319 17.957C13.7741 17.8245 13.9621 17.7524 14.1564 17.7558C14.3507 17.7593 14.5361 17.838 14.6735 17.9754C14.8109 18.1128 14.8896 18.2982 14.8931 18.4925C14.8965 18.6868 14.8244 18.8748 14.6919 19.017L13.9719 19.739C12.6782 20.9977 10.9409 21.6965 9.13595 21.6841C7.33098 21.6717 5.60348 20.9491 4.32721 19.6727C3.05094 18.3963 2.32854 16.6687 2.31632 14.8637C2.30409 13.0588 3.00303 11.3216 4.26189 10.028L4.98189 9.308C5.12251 9.16755 5.31314 9.08866 5.51189 9.08866C5.71064 9.08866 5.90126 9.16755 6.04189 9.308L6.04289 9.307Z" fill="#686C86"/>
<path d="M14.693 9.30699C14.8335 9.44761 14.9124 9.63824 14.9124 9.83699C14.9124 10.0357 14.8335 10.2264 14.693 10.367L10.368 14.693C10.2994 14.7667 10.2166 14.8258 10.1246 14.8668C10.0326 14.9078 9.93327 14.9298 9.83257 14.9316C9.73186 14.9334 9.63183 14.9148 9.53845 14.8771C9.44506 14.8394 9.36022 14.7832 9.28901 14.712C9.21779 14.6408 9.16164 14.556 9.12392 14.4626C9.0862 14.3692 9.06768 14.2692 9.06945 14.1685C9.07123 14.0678 9.09327 13.9684 9.13426 13.8764C9.17526 13.7844 9.23436 13.7016 9.30804 13.633L13.632 9.30699C13.7727 9.16654 13.9633 9.08765 14.162 9.08765C14.3608 9.08765 14.5524 9.16654 14.693 9.30699Z" fill="#686C86"/>
</svg>
