<svg width="24" height="17" viewBox="0 0 24 17" fill="none" xmlns="http://www.w3.org/2000/svg">
<g clip-path="url(#clip0_13_1387)">
<path d="M23.47 2.63203C23.3323 2.1233 23.0638 1.65951 22.6911 1.28684C22.3185 0.914167 21.8547 0.64562 21.346 0.507937C19.4835 0 11.9878 0 11.9878 0C11.9878 0 4.49177 0.015375 2.62933 0.523312C2.1206 0.661003 1.65681 0.929565 1.28415 1.30225C0.911497 1.67494 0.642976 2.13875 0.505331 2.6475C-0.0580132 5.95669 -0.276545 10.9991 0.520799 14.1759C0.658459 14.6847 0.926986 15.1485 1.29964 15.5211C1.6723 15.8938 2.13608 16.1623 2.6448 16.3C4.50724 16.808 12.0031 16.808 12.0031 16.808C12.0031 16.808 19.4989 16.808 21.3612 16.3C21.87 16.1624 22.3338 15.8938 22.7064 15.5211C23.0791 15.1485 23.3477 14.6847 23.4853 14.1759C24.0795 10.8621 24.2626 5.82272 23.47 2.63203Z" fill="#FF0000"/>
<path d="M9.60205 12.0056L15.8203 8.40393L9.60205 4.80225V12.0056Z" fill="white"/>
</g>
<defs>
<clipPath id="clip0_13_1387">
<rect width="24" height="16.875" fill="white"/>
</clipPath>
</defs>
</svg>
