<svg width="24" height="24" viewBox="0 0 24 24" fill="none" xmlns="http://www.w3.org/2000/svg">
<path fill-rule="evenodd" clip-rule="evenodd" d="M20.4101 9.85999C20.3518 9.85718 20.2934 9.85618 20.2351 9.85699H17.8C15.808 9.85699 14.1021 11.438 14.1021 13.5C14.1021 15.562 15.8081 17.143 17.8011 17.143H20.234C20.295 17.143 20.3541 17.143 20.4091 17.139C20.8202 17.1127 21.2078 16.9379 21.4996 16.647C21.7914 16.3561 21.9675 15.9691 21.9951 15.558C21.9991 15.499 21.9991 15.436 21.9991 15.378V11.622C21.9991 11.564 21.9991 11.501 21.9951 11.442C21.9675 11.0311 21.7916 10.6441 21.5 10.3533C21.2084 10.0624 20.821 9.88748 20.4101 9.86099V9.85999ZM17.5871 14.471C18.1001 14.471 18.5171 14.037 18.5171 13.5C18.5171 12.963 18.1001 12.529 17.5871 12.529C17.0741 12.529 16.6581 12.963 16.6581 13.5C16.6581 14.037 17.0731 14.471 17.5871 14.471Z" fill="white"/>
<path fill-rule="evenodd" clip-rule="evenodd" d="M20.234 18.6C20.2675 18.5988 20.3008 18.6055 20.3312 18.6196C20.3617 18.6337 20.3884 18.6547 20.4092 18.6809C20.43 18.7072 20.4444 18.738 20.4511 18.7708C20.4579 18.8037 20.4568 18.8377 20.448 18.87C20.254 19.562 19.947 20.152 19.454 20.648C18.733 21.375 17.818 21.698 16.688 21.851C15.59 22 14.188 22 12.416 22H10.379C8.608 22 7.205 22 6.107 21.851C4.977 21.698 4.062 21.375 3.341 20.648C2.62 19.922 2.3 19 2.148 17.861C2 16.754 2 15.34 2 13.555V13.445C2 11.66 2 10.245 2.148 9.139C2.3 8 2.62 7.08 3.34 6.351C4.061 5.625 4.976 5.301 6.106 5.149C7.205 5 8.608 5 10.379 5H12.416C14.187 5 15.59 5 16.688 5.149C17.818 5.302 18.733 5.625 19.454 6.351C19.947 6.848 20.254 7.438 20.448 8.131C20.4566 8.16328 20.4575 8.19714 20.4507 8.22984C20.4439 8.26255 20.4295 8.2932 20.4087 8.31935C20.3879 8.3455 20.3613 8.36641 20.3309 8.38042C20.3006 8.39442 20.2674 8.40113 20.234 8.4H17.801C15.067 8.4 12.658 10.577 12.658 13.5C12.658 16.423 15.068 18.6 17.802 18.6H20.234ZM5.614 8.886C5.51879 8.88639 5.42459 8.90554 5.33678 8.94233C5.24897 8.97913 5.16927 9.03287 5.10222 9.10047C5.03518 9.16807 4.98211 9.24821 4.94604 9.33633C4.90997 9.42444 4.89161 9.51879 4.892 9.614C4.892 10.017 5.215 10.343 5.614 10.343H9.47C9.87 10.343 10.193 10.017 10.193 9.614C10.1935 9.42163 10.1177 9.2369 9.98213 9.10041C9.84657 8.96391 9.66237 8.88679 9.47 8.886H5.614Z" fill="white"/>
<path d="M7.7771 4.02401L9.7351 2.58101C10.246 2.20327 10.8647 1.99942 11.5001 1.99942C12.1355 1.99942 12.7542 2.20327 13.2651 2.58101L15.2341 4.03201C14.4101 4.00001 13.4901 4.00001 12.4831 4.00001H10.3131C9.3911 4.00001 8.5441 4.00001 7.7771 4.02401Z" fill="white"/>
</svg>
