<svg width="16" height="16" viewBox="0 0 16 16" fill="none" xmlns="http://www.w3.org/2000/svg">
<g clip-path="url(#clip0_13_1337)">
<path d="M7.96192 0.833313H8.03792C9.57725 0.833313 10.7833 0.833313 11.7246 0.95998C12.6873 1.08931 13.4473 1.35998 14.0439 1.95598C14.6406 2.55265 14.9106 3.31265 15.0399 4.27598C15.1666 5.21665 15.1666 6.42265 15.1666 7.96198V8.03798C15.1666 9.57731 15.1666 10.7833 15.0399 11.7246C14.9106 12.6873 14.6399 13.4473 14.0439 14.044C13.4913 14.596 12.7986 14.8693 11.9326 15.0093C11.0813 15.1473 10.0106 15.164 8.66725 15.166C8.53464 15.1662 8.4074 15.1136 8.3135 15.02C8.21961 14.9264 8.16676 14.7993 8.16658 14.6666C8.16641 14.534 8.21892 14.4068 8.31256 14.3129C8.4062 14.219 8.53331 14.1662 8.66592 14.166C10.0259 14.164 11.0146 14.1453 11.7726 14.022C12.5173 13.902 12.9846 13.6886 13.3366 13.3366C13.7166 12.9566 13.9346 12.4433 14.0493 11.5906C14.1653 10.724 14.1666 9.58531 14.1666 7.99998C14.1666 6.41465 14.1653 5.27598 14.0486 4.40931C13.9346 3.55665 13.7166 3.04265 13.3366 2.66265C12.9566 2.28331 12.4433 2.06531 11.5906 1.95065C10.7239 1.83465 9.58525 1.83331 7.99992 1.83331C6.41459 1.83331 5.27525 1.83465 4.40859 1.95065C3.55659 2.06531 3.04259 2.28398 2.66325 2.66331C2.31059 3.01531 2.09792 3.48331 1.97792 4.22665C1.85459 4.98531 1.83592 5.97398 1.83325 7.33398C1.83316 7.46659 1.7804 7.59373 1.68657 7.68744C1.59274 7.78114 1.46553 7.83373 1.33292 7.83365C1.20031 7.83356 1.07317 7.7808 0.979463 7.68696C0.885757 7.59313 0.833164 7.46592 0.833252 7.33331C0.835919 5.98931 0.853252 4.91865 0.990585 4.06798C1.13059 3.20131 1.40392 2.50931 1.95592 1.95665C2.55259 1.35998 3.31259 1.08998 4.27592 0.960646C5.21659 0.83398 6.42259 0.83398 7.96192 0.83398V0.833313Z" fill="white"/>
<path d="M8.33335 4.66669C8.33335 4.53408 8.38603 4.4069 8.4798 4.31313C8.57357 4.21937 8.70075 4.16669 8.83335 4.16669H11.3334C11.466 4.16669 11.5931 4.21937 11.6869 4.31313C11.7807 4.4069 11.8334 4.53408 11.8334 4.66669V7.16669C11.8334 7.2993 11.7807 7.42647 11.6869 7.52024C11.5931 7.61401 11.466 7.66669 11.3334 7.66669C11.2007 7.66669 11.0736 7.61401 10.9798 7.52024C10.886 7.42647 10.8334 7.2993 10.8334 7.16669V5.87335L8.35335 8.35335C8.30758 8.40248 8.25238 8.44188 8.19105 8.46921C8.12971 8.49654 8.0635 8.51123 7.99637 8.51241C7.92923 8.5136 7.86255 8.50125 7.80029 8.4761C7.73803 8.45095 7.68148 8.41352 7.634 8.36605C7.58652 8.31857 7.54909 8.26201 7.52394 8.19975C7.49879 8.13749 7.48644 8.07081 7.48763 8.00367C7.48881 7.93654 7.50351 7.87033 7.53083 7.80899C7.55816 7.74766 7.59756 7.69246 7.64669 7.64669L10.1267 5.16669H8.83335C8.70075 5.16669 8.57357 5.11401 8.4798 5.02024C8.38603 4.92647 8.33335 4.7993 8.33335 4.66669Z" fill="white"/>
<path fill-rule="evenodd" clip-rule="evenodd" d="M3.96525 8.83331C3.36659 8.83331 2.86659 8.83331 2.47059 8.88665C2.05192 8.94265 1.67392 9.06665 1.37059 9.37065C1.06659 9.67398 0.942585 10.052 0.886585 10.4706C0.833252 10.8666 0.833252 11.366 0.833252 11.9653V12.0346C0.833252 12.634 0.833252 13.1333 0.886585 13.5293C0.942585 13.948 1.06659 14.326 1.36992 14.6293C1.67392 14.9333 2.05192 15.0573 2.46992 15.1133C2.86659 15.1666 3.36659 15.1666 3.96525 15.1666H4.03459C4.63325 15.1666 5.13325 15.1666 5.52925 15.1133C5.94792 15.0573 6.32592 14.9333 6.62925 14.6293C6.93325 14.326 7.05725 13.948 7.11325 13.5293C7.16659 13.1333 7.16659 12.634 7.16659 12.0346V11.9653C7.16659 11.366 7.16659 10.8666 7.11325 10.4706C7.05725 10.052 6.93325 9.67398 6.62992 9.37065C6.32592 9.06665 5.94792 8.94265 5.52992 8.88665C5.13325 8.83331 4.63325 8.83331 4.03459 8.83331H3.96525ZM2.07725 10.0773C2.16392 9.99065 2.29592 9.91931 2.60392 9.87731C2.92525 9.83465 3.35725 9.83331 3.99992 9.83331C4.64259 9.83331 5.07459 9.83465 5.39659 9.87731C5.70392 9.91931 5.83592 9.99065 5.92259 10.0773C6.00925 10.164 6.08059 10.296 6.12259 10.604C6.16525 10.9253 6.16659 11.3573 6.16659 12C6.16659 12.6426 6.16525 13.0746 6.12192 13.3966C6.08059 13.704 6.00925 13.836 5.92192 13.9226C5.83525 14.0093 5.70392 14.0806 5.39659 14.1226C5.07459 14.1653 4.64259 14.1666 3.99992 14.1666C3.35725 14.1666 2.92525 14.1653 2.60325 14.122C2.29592 14.0806 2.16392 14.0093 2.07725 13.922C1.99059 13.8353 1.91925 13.704 1.87725 13.3966C1.83459 13.0746 1.83325 12.6426 1.83325 12C1.83325 11.3573 1.83459 10.9253 1.87792 10.6033C1.91925 10.296 1.99059 10.164 2.07792 10.0773H2.07725Z" fill="white"/>
</g>
<defs>
<clipPath id="clip0_13_1337">
<rect width="16" height="16" fill="white"/>
</clipPath>
</defs>
</svg>
