<svg width="24" height="24" viewBox="0 0 24 24" fill="none" xmlns="http://www.w3.org/2000/svg">
<path fill-rule="evenodd" clip-rule="evenodd" d="M10.31 2.25H13.69C13.907 2.25 14.096 2.25 14.274 2.278C14.6207 2.33354 14.9496 2.46946 15.2344 2.67488C15.5192 2.8803 15.7519 3.14952 15.914 3.461C15.998 3.621 16.057 3.8 16.126 4.005L16.237 4.34C16.3136 4.61216 16.4802 4.85032 16.7096 5.0156C16.9389 5.18088 17.2176 5.26351 17.5 5.25H20.5C20.6989 5.25 20.8897 5.32902 21.0303 5.46967C21.171 5.61032 21.25 5.80109 21.25 6C21.25 6.19891 21.171 6.38968 21.0303 6.53033C20.8897 6.67098 20.6989 6.75 20.5 6.75H3.5C3.30109 6.75 3.11032 6.67098 2.96967 6.53033C2.82902 6.38968 2.75 6.19891 2.75 6C2.75 5.80109 2.82902 5.61032 2.96967 5.46967C3.11032 5.32902 3.30109 5.25 3.5 5.25H6.59C6.8571 5.24359 7.11513 5.15177 7.32623 4.988C7.53733 4.82423 7.6904 4.59713 7.763 4.34L7.875 4.005C7.943 3.8 8.002 3.621 8.085 3.461C8.24719 3.1494 8.48009 2.8801 8.76505 2.67468C9.05001 2.46925 9.37911 2.3334 9.726 2.278C9.904 2.25 10.093 2.25 10.309 2.25H10.31ZM9.008 5.25C9.07822 5.11249 9.13675 4.96932 9.183 4.822L9.283 4.522C9.374 4.249 9.395 4.194 9.416 4.154C9.46999 4.05001 9.54758 3.96011 9.64257 3.89152C9.73757 3.82292 9.84731 3.77754 9.963 3.759C10.0934 3.74799 10.2243 3.74498 10.355 3.75H13.645C13.933 3.75 13.993 3.752 14.037 3.76C14.1526 3.77843 14.2623 3.82366 14.3573 3.89208C14.4522 3.9605 14.5299 4.05019 14.584 4.154C14.605 4.194 14.626 4.249 14.717 4.523L14.817 4.823L14.856 4.935C14.895 5.045 14.941 5.149 14.992 5.25H9.008Z" fill="#686C86"/>
<path d="M5.91517 8.45005C5.90191 8.25153 5.81034 8.06642 5.66059 7.93542C5.51084 7.80443 5.31519 7.73829 5.11667 7.75155C4.91816 7.76481 4.73304 7.85639 4.60205 8.00613C4.47105 8.15588 4.40491 8.35153 4.41817 8.55005L4.88217 15.502C4.96717 16.784 5.03617 17.82 5.19817 18.634C5.36717 19.479 5.65317 20.185 6.24517 20.738C6.83617 21.292 7.56017 21.531 8.41517 21.642C9.23717 21.75 10.2752 21.75 11.5612 21.75H12.4402C13.7252 21.75 14.7642 21.75 15.5862 21.642C16.4402 21.531 17.1642 21.292 17.7562 20.738C18.3472 20.185 18.6332 19.478 18.8022 18.634C18.9642 17.821 19.0322 16.784 19.1182 15.502L19.5822 8.55005C19.5954 8.35153 19.5293 8.15588 19.3983 8.00613C19.2673 7.85639 19.0822 7.76481 18.8837 7.75155C18.6852 7.73829 18.4895 7.80443 18.3398 7.93542C18.19 8.06642 18.0984 8.25153 18.0852 8.45005L17.6252 15.35C17.5352 16.697 17.4712 17.635 17.3312 18.34C17.1942 19.025 17.0042 19.387 16.7312 19.643C16.4572 19.899 16.0832 20.065 15.3912 20.155C14.6782 20.248 13.7382 20.25 12.3872 20.25H11.6132C10.2632 20.25 9.32317 20.248 8.60917 20.155C7.91717 20.065 7.54317 19.899 7.26917 19.643C6.99617 19.387 6.80617 19.025 6.66917 18.341C6.52917 17.635 6.46517 16.697 6.37517 15.349L5.91517 8.45005Z" fill="#686C86"/>
<path d="M9.42523 10.254C9.62307 10.2342 9.82068 10.2937 9.97464 10.4195C10.1286 10.5454 10.2263 10.7272 10.2462 10.925L10.7462 15.925C10.7609 16.1201 10.6987 16.3132 10.573 16.4631C10.4473 16.613 10.268 16.7078 10.0734 16.7274C9.87871 16.7469 9.68411 16.6897 9.53109 16.5678C9.37806 16.4459 9.27871 16.2691 9.25423 16.075L8.75423 11.075C8.7344 10.8771 8.79395 10.6795 8.91977 10.5256C9.0456 10.3716 9.2274 10.2739 9.42523 10.254ZM14.5752 10.254C14.7729 10.2739 14.9545 10.3715 15.0803 10.5252C15.2061 10.679 15.2658 10.8763 15.2462 11.074L14.7462 16.074C14.7214 16.2677 14.622 16.4441 14.4692 16.5657C14.3164 16.6873 14.1221 16.7445 13.9278 16.725C13.7334 16.7056 13.5543 16.6112 13.4285 16.4618C13.3028 16.3124 13.2402 16.1198 13.2542 15.925L13.7542 10.925C13.7742 10.7274 13.8717 10.5457 14.0255 10.4199C14.1792 10.2941 14.3776 10.2344 14.5752 10.254Z" fill="#686C86"/>
</svg>
