<svg width="16" height="16" viewBox="0 0 16 16" fill="none" xmlns="http://www.w3.org/2000/svg">
<path fill-rule="evenodd" clip-rule="evenodd" d="M13.9493 7.83334H12.1533C11.204 7.83334 10.4993 8.53934 10.4993 9.33334C10.4993 10.1273 11.204 10.8333 12.1527 10.8333H13.9647C14.102 10.8247 14.1613 10.732 14.166 10.676V7.99068C14.1613 7.93468 14.102 7.84201 13.9647 7.83401H13.9487L13.9493 7.83334ZM13.9 6.83334C13.944 6.83334 13.9867 6.83334 14.0267 6.83601C14.6067 6.87134 15.1207 7.30934 15.164 7.92134C15.1667 7.96134 15.1667 8.00468 15.1667 8.04468V10.622C15.1667 10.662 15.1667 10.7053 15.164 10.7453C15.1207 11.3573 14.6067 11.7953 14.026 11.8313C13.9867 11.8333 13.944 11.8333 13.8993 11.8333H12.154C10.724 11.8333 9.5 10.748 9.5 9.33334C9.5 7.91868 10.724 6.83334 12.1533 6.83334H13.9Z" fill="white"/>
<path d="M12.6667 9.33332C12.6667 9.51013 12.5965 9.6797 12.4714 9.80473C12.3464 9.92975 12.1769 9.99999 12 9.99999C11.8232 9.99999 11.6537 9.92975 11.5286 9.80473C11.4036 9.6797 11.3334 9.51013 11.3334 9.33332C11.3334 9.15651 11.4036 8.98694 11.5286 8.86192C11.6537 8.73689 11.8232 8.66666 12 8.66666C12.1769 8.66666 12.3464 8.73689 12.4714 8.86192C12.5965 8.98694 12.6667 9.15651 12.6667 9.33332Z" fill="white"/>
<path fill-rule="evenodd" clip-rule="evenodd" d="M13.9 6.83332C14.0913 6.82609 14.2817 6.86257 14.4567 6.93999C14.3854 5.86932 14.1887 5.04399 13.5727 4.42732C13.0734 3.92865 12.4407 3.70732 11.6594 3.60199L11.6314 3.59865C11.6244 3.59336 11.6173 3.58825 11.61 3.58332L9.11937 1.93199C8.68734 1.65004 8.1826 1.49991 7.66671 1.49991C7.15081 1.49991 6.64607 1.65004 6.21404 1.93199L3.72404 3.58332C3.71658 3.58824 3.70924 3.59335 3.70204 3.59865L3.67404 3.60199C2.89271 3.70732 2.26004 3.92865 1.76071 4.42732C1.26204 4.92665 1.04071 5.55932 0.935374 6.34065C0.833374 7.10065 0.833374 8.07065 0.833374 9.29599V9.37065C0.833374 10.596 0.833374 11.5667 0.935374 12.326C1.04071 13.1073 1.26204 13.74 1.76071 14.2393C2.26004 14.738 2.89271 14.9593 3.67404 15.0647C4.43404 15.1667 5.40404 15.1667 6.62937 15.1667H8.70404C9.92937 15.1667 10.9 15.1667 11.6594 15.0647C12.4407 14.9593 13.0734 14.738 13.5727 14.2393C14.1887 13.6227 14.3854 12.7973 14.4567 11.726C14.322 11.786 14.1767 11.822 14.026 11.8313C13.9867 11.8333 13.944 11.8333 13.8994 11.8333H13.4454C13.3694 12.7273 13.198 13.2 12.8654 13.532C12.5834 13.814 12.1967 13.9833 11.526 14.0733C10.8414 14.1653 9.93804 14.1667 8.66671 14.1667H6.66671C5.39537 14.1667 4.49271 14.1653 3.80671 14.0733C3.13671 13.9833 2.75004 13.814 2.46804 13.532C2.18604 13.25 2.01671 12.8633 1.92671 12.1927C1.83471 11.508 1.83337 10.6047 1.83337 9.33332C1.83337 8.06199 1.83471 7.15932 1.92671 6.47332C2.01671 5.80332 2.18604 5.41665 2.46804 5.13465C2.75004 4.85265 3.13671 4.68332 3.80737 4.59332C4.49271 4.50132 5.39537 4.49999 6.66671 4.49999H8.66671C9.93804 4.49999 10.8414 4.50132 11.5267 4.59332C12.1967 4.68332 12.5834 4.85265 12.8654 5.13465C13.198 5.46665 13.3694 5.93932 13.4454 6.83332H13.9ZM6.62937 3.49999H8.70404C9.04871 3.49999 9.37271 3.49999 9.67737 3.50199L8.56671 2.76532C8.03337 2.41199 7.30004 2.41199 6.76671 2.76532L5.65537 3.50199C5.96071 3.49999 6.28471 3.49999 6.62871 3.49999H6.62937Z" fill="white"/>
<path d="M4 6.16666C3.86739 6.16666 3.74021 6.21934 3.64645 6.3131C3.55268 6.40687 3.5 6.53405 3.5 6.66666C3.5 6.79926 3.55268 6.92644 3.64645 7.02021C3.74021 7.11398 3.86739 7.16666 4 7.16666H6.66667C6.79927 7.16666 6.92645 7.11398 7.02022 7.02021C7.11399 6.92644 7.16667 6.79926 7.16667 6.66666C7.16667 6.53405 7.11399 6.40687 7.02022 6.3131C6.92645 6.21934 6.79927 6.16666 6.66667 6.16666H4Z" fill="white"/>
<path d="M12.6667 9.33332C12.6667 9.51013 12.5965 9.6797 12.4714 9.80473C12.3464 9.92975 12.1769 9.99999 12 9.99999C11.8232 9.99999 11.6537 9.92975 11.5286 9.80473C11.4036 9.6797 11.3334 9.51013 11.3334 9.33332C11.3334 9.15651 11.4036 8.98694 11.5286 8.86192C11.6537 8.73689 11.8232 8.66666 12 8.66666C12.1769 8.66666 12.3464 8.73689 12.4714 8.86192C12.5965 8.98694 12.6667 9.15651 12.6667 9.33332Z" fill="white"/>
</svg>
