<svg width="24" height="24" viewBox="0 0 24 24" fill="none" xmlns="http://www.w3.org/2000/svg">
<path fill-rule="evenodd" clip-rule="evenodd" d="M10.752 1.99403C10.7528 2.09253 10.7342 2.19021 10.6972 2.28151C10.6603 2.3728 10.6057 2.45593 10.5366 2.52613C10.4675 2.59633 10.3853 2.65224 10.2946 2.69065C10.2039 2.72907 10.1065 2.74925 10.008 2.75003C8.298 2.76403 7.038 2.82003 6.063 3.01103C5.108 3.19803 4.48 3.50503 3.995 3.99003C3.425 4.56003 3.098 5.33003 2.926 6.61003C2.752 7.91003 2.75 9.61903 2.75 11.997C2.75 14.377 2.752 16.085 2.926 17.385C3.098 18.664 3.426 19.435 3.996 20.005C4.565 20.575 5.336 20.902 6.615 21.074C7.915 21.248 9.624 21.25 12.003 21.25C14.381 21.25 16.09 21.248 17.39 21.074C18.67 20.902 19.44 20.574 20.01 20.004C20.495 19.52 20.802 18.892 20.989 17.937C21.179 16.961 21.235 15.701 21.25 13.992C21.2516 13.7931 21.3321 13.603 21.4739 13.4635C21.6157 13.3239 21.8071 13.2464 22.006 13.248C22.2049 13.2496 22.395 13.3302 22.5346 13.4719C22.6741 13.6137 22.7516 13.8051 22.75 14.004C22.735 15.709 22.682 17.097 22.46 18.226C22.236 19.376 21.827 20.309 21.07 21.066C20.176 21.961 19.035 22.366 17.59 22.56C16.178 22.75 14.369 22.75 12.06 22.75H11.945C9.636 22.75 7.827 22.75 6.415 22.56C4.97 22.366 3.83 21.96 2.935 21.066C2.04 20.171 1.635 19.03 1.44 17.586C1.25 16.173 1.25 14.364 1.25 12.055V11.94C1.25 9.63103 1.25 7.82203 1.44 6.41003C1.634 4.96503 2.04 3.82403 2.935 2.93003C3.691 2.17303 4.625 1.76403 5.775 1.54003C6.903 1.31803 8.291 1.26403 9.995 1.25003C10.0936 1.24911 10.1914 1.26763 10.2828 1.30453C10.3742 1.34143 10.4574 1.396 10.5277 1.4651C10.598 1.5342 10.654 1.61648 10.6925 1.70724C10.731 1.798 10.7512 1.89546 10.752 1.99403ZM16.47 1.47003C16.6106 1.32958 16.8012 1.25069 17 1.25069C17.1988 1.25069 17.3894 1.32958 17.53 1.47003L22.53 6.47003C22.6705 6.61066 22.7493 6.80128 22.7493 7.00003C22.7493 7.19878 22.6705 7.38941 22.53 7.53003L17.53 12.53C17.4613 12.6037 17.3785 12.6628 17.2865 12.7038C17.1945 12.7448 17.0952 12.7668 16.9945 12.7686C16.8938 12.7704 16.7938 12.7519 16.7004 12.7142C16.607 12.6764 16.5222 12.6203 16.451 12.5491C16.3797 12.4779 16.3236 12.393 16.2859 12.2996C16.2482 12.2062 16.2296 12.1062 16.2314 12.0055C16.2332 11.9048 16.2552 11.8055 16.2962 11.7135C16.3372 11.6215 16.3963 11.5387 16.47 11.47L20.19 7.75003H14C12.448 7.75003 11.533 8.50703 11.212 8.83003L11.02 9.02203L10.83 9.21203C10.507 9.53203 9.75 10.448 9.75 12V15C9.75 15.1989 9.67098 15.3897 9.53033 15.5304C9.38968 15.671 9.19891 15.75 9 15.75C8.80109 15.75 8.61032 15.671 8.46967 15.5304C8.32902 15.3897 8.25 15.1989 8.25 15V12C8.25 9.91603 9.277 8.64003 9.771 8.14903L9.961 7.95903L10.149 7.77103C10.64 7.27703 11.916 6.25003 14 6.25003H20.19L16.47 2.53003C16.3295 2.38941 16.2507 2.19878 16.2507 2.00003C16.2507 1.80128 16.3295 1.61066 16.47 1.47003Z" fill="#686C86"/>
</svg>
