<svg width="24" height="24" viewBox="0 0 24 24" fill="none" xmlns="http://www.w3.org/2000/svg">
<path fill-rule="evenodd" clip-rule="evenodd" d="M21.7881 21.788C21.9235 21.6524 21.9996 21.4686 21.9996 21.277C21.9996 21.0854 21.9235 20.9016 21.7881 20.766L18.1221 17.1C19.6578 15.3002 20.4373 12.9758 20.2972 10.614C20.1571 8.25214 19.1083 6.03621 17.3705 4.43058C15.6327 2.82496 13.3409 1.95427 10.9754 2.00099C8.60991 2.04772 6.35429 3.00823 4.68129 4.68123C3.00829 6.35423 2.04778 8.60985 2.00106 10.9754C1.95433 13.3409 2.82502 15.6327 4.43064 17.3704C6.03627 19.1082 8.2522 20.157 10.614 20.2971C12.9759 20.4372 15.3002 19.6577 17.1001 18.122L20.7661 21.788C20.9016 21.9234 21.0854 21.9995 21.2771 21.9995C21.4687 21.9995 21.6525 21.9234 21.7881 21.788Z" fill="#F0306A"/>
</svg>
