<svg width="18" height="18" viewBox="0 0 18 18" fill="none" xmlns="http://www.w3.org/2000/svg">
<path fill-rule="evenodd" clip-rule="evenodd" d="M7.95513 0.622908C7.95579 0.705367 7.9402 0.787148 7.90926 0.863582C7.87831 0.940017 7.83262 1.00961 7.77478 1.06838C7.71694 1.12715 7.64808 1.17396 7.57215 1.20612C7.49623 1.23829 7.4147 1.25518 7.33225 1.25584C5.90062 1.26756 4.84575 1.31444 4.02947 1.47435C3.22994 1.6309 2.70417 1.88793 2.29813 2.29397C1.82092 2.77118 1.54716 3.41583 1.40316 4.48745C1.25748 5.57582 1.25581 7.0066 1.25581 8.99747C1.25581 10.99 1.25748 12.42 1.40316 13.5083C1.54716 14.5791 1.82176 15.2246 2.29897 15.7018C2.77534 16.179 3.42082 16.4528 4.49161 16.5968C5.57997 16.7425 7.01076 16.7441 9.00247 16.7441C10.9933 16.7441 12.4241 16.7425 13.5125 16.5968C14.5841 16.4528 15.2288 16.1782 15.706 15.701C16.112 15.2958 16.369 14.77 16.5256 13.9705C16.6847 13.1534 16.7316 12.0985 16.7441 10.6677C16.7454 10.5012 16.8129 10.342 16.9316 10.2252C17.0503 10.1084 17.2105 10.0435 17.377 10.0448C17.5436 10.0462 17.7027 10.1136 17.8196 10.2323C17.9364 10.351 18.0012 10.5112 17.9999 10.6777C17.9874 12.1052 17.943 13.2672 17.7571 14.2124C17.5696 15.1752 17.2272 15.9563 16.5934 16.5901C15.845 17.3394 14.8897 17.6785 13.6799 17.8409C12.4978 17.9999 10.9833 17.9999 9.05019 17.9999H8.95391C7.0208 17.9999 5.5063 17.9999 4.32417 17.8409C3.1144 17.6785 2.15999 17.3386 1.41069 16.5901C0.661392 15.8408 0.322324 14.8855 0.159069 13.6766C4.99013e-08 12.4936 0 10.9791 0 9.04603V8.94975C0 7.01665 4.99013e-08 5.50214 0.159069 4.32001C0.321487 3.11025 0.661392 2.15499 1.41069 1.40653C2.04362 0.772768 2.82557 0.430351 3.78835 0.242817C4.73272 0.0569575 5.89476 0.0117484 7.32136 2.75374e-05C7.40389 -0.000745373 7.48576 0.0147591 7.56229 0.0456542C7.63882 0.0765493 7.70851 0.122229 7.76738 0.18008C7.82624 0.237932 7.87312 0.30682 7.90533 0.382804C7.93755 0.458789 7.95447 0.540379 7.95513 0.622908ZM12.7423 0.184213C12.86 0.0666269 13.0196 0.000580045 13.186 0.000580045C13.3524 0.000580045 13.512 0.0666269 13.6297 0.184213L17.8157 4.37024C17.9333 4.48797 17.9994 4.64756 17.9994 4.81396C17.9994 4.98035 17.9333 5.13995 17.8157 5.25768L13.6297 9.44371C13.5722 9.5054 13.5029 9.55488 13.4259 9.5892C13.3489 9.62352 13.2657 9.64197 13.1814 9.64346C13.0971 9.64494 13.0133 9.62943 12.9352 9.59785C12.857 9.56627 12.786 9.51927 12.7263 9.45964C12.6667 9.40002 12.6197 9.329 12.5881 9.25081C12.5565 9.17263 12.541 9.08888 12.5425 9.00457C12.544 8.92026 12.5625 8.83712 12.5968 8.7601C12.6311 8.68307 12.6806 8.61375 12.7423 8.55627L15.8567 5.44186H10.6744C9.37503 5.44186 8.60898 6.07563 8.34024 6.34605L8.1795 6.50679L8.02043 6.66586C7.75001 6.93376 7.11625 7.70064 7.11625 8.99999V11.5116C7.11625 11.6781 7.05009 11.8378 6.93234 11.9556C6.81458 12.0734 6.65487 12.1395 6.48834 12.1395C6.32181 12.1395 6.1621 12.0734 6.04435 11.9556C5.92659 11.8378 5.86044 11.6781 5.86044 11.5116V8.99999C5.86044 7.25525 6.72025 6.18698 7.13383 5.77591L7.2929 5.61684L7.45029 5.45944C7.86136 5.04587 8.92963 4.18606 10.6744 4.18606H15.8567L12.7423 1.07165C12.6247 0.953918 12.5586 0.794327 12.5586 0.627932C12.5586 0.461537 12.6247 0.301945 12.7423 0.184213Z" fill="white"/>
</svg>
