<svg width="20" height="20" viewBox="0 0 20 20" fill="none" xmlns="http://www.w3.org/2000/svg">
<path fill-rule="evenodd" clip-rule="evenodd" d="M17.4367 9.79169H15.1917C14.005 9.79169 13.1242 10.6742 13.1242 11.6667C13.1242 12.6592 14.005 13.5417 15.1908 13.5417H17.4558C17.6275 13.5309 17.7017 13.415 17.7075 13.345V9.98835C17.7017 9.91835 17.6275 9.80252 17.4558 9.79252H17.4358L17.4367 9.79169ZM17.375 8.54169C17.43 8.54169 17.4833 8.54169 17.5333 8.54502C18.2583 8.58919 18.9008 9.13669 18.955 9.90169C18.9583 9.95169 18.9583 10.0059 18.9583 10.0559V13.2775C18.9583 13.3275 18.9583 13.3817 18.955 13.4317C18.9008 14.1967 18.2583 14.7442 17.5325 14.7892C17.4833 14.7917 17.43 14.7917 17.3742 14.7917H15.1925C13.405 14.7917 11.875 13.435 11.875 11.6667C11.875 9.89835 13.405 8.54169 15.1917 8.54169H17.375Z" fill="white"/>
<path d="M15.8334 11.6666C15.8334 11.8877 15.7456 12.0996 15.5893 12.2559C15.433 12.4122 15.221 12.5 15 12.5C14.779 12.5 14.567 12.4122 14.4108 12.2559C14.2545 12.0996 14.1667 11.8877 14.1667 11.6666C14.1667 11.4456 14.2545 11.2337 14.4108 11.0774C14.567 10.9211 14.779 10.8333 15 10.8333C15.221 10.8333 15.433 10.9211 15.5893 11.0774C15.7456 11.2337 15.8334 11.4456 15.8334 11.6666Z" fill="white"/>
<path fill-rule="evenodd" clip-rule="evenodd" d="M17.375 8.54164C17.6141 8.53261 17.8521 8.57821 18.0709 8.67498C17.9817 7.33664 17.7359 6.30498 16.9659 5.53414C16.3417 4.91081 15.5509 4.63414 14.5742 4.50248L14.5392 4.49831C14.5305 4.4917 14.5216 4.48531 14.5125 4.47914L11.3992 2.41498C10.8591 2.06254 10.2282 1.87488 9.58335 1.87488C8.93849 1.87488 8.30756 2.06254 7.76752 2.41498L4.65502 4.47914C4.64569 4.48529 4.63652 4.49168 4.62752 4.49831L4.59252 4.50248C3.61585 4.63414 2.82502 4.91081 2.20085 5.53414C1.57752 6.15831 1.30085 6.94914 1.16919 7.92581C1.04169 8.87581 1.04169 10.0883 1.04169 11.62V11.7133C1.04169 13.245 1.04169 14.4583 1.16919 15.4075C1.30085 16.3841 1.57752 17.175 2.20085 17.7991C2.82502 18.4225 3.61585 18.6991 4.59252 18.8308C5.54252 18.9583 6.75502 18.9583 8.28669 18.9583H10.88C12.4117 18.9583 13.625 18.9583 14.5742 18.8308C15.5509 18.6991 16.3417 18.4225 16.9659 17.7991C17.7359 17.0283 17.9817 15.9966 18.0709 14.6575C17.9025 14.7325 17.7209 14.7775 17.5325 14.7891C17.4834 14.7916 17.43 14.7916 17.3742 14.7916H16.8067C16.7117 15.9091 16.4975 16.5 16.0817 16.915C15.7292 17.2675 15.2459 17.4791 14.4075 17.5916C13.5517 17.7066 12.4225 17.7083 10.8334 17.7083H8.33335C6.74419 17.7083 5.61585 17.7066 4.75835 17.5916C3.92085 17.4791 3.43752 17.2675 3.08502 16.915C2.73252 16.5625 2.52085 16.0791 2.40835 15.2408C2.29335 14.385 2.29169 13.2558 2.29169 11.6666C2.29169 10.0775 2.29335 8.94914 2.40835 8.09164C2.52085 7.25414 2.73252 6.77081 3.08502 6.41831C3.43752 6.06581 3.92085 5.85414 4.75919 5.74164C5.61585 5.62664 6.74419 5.62498 8.33335 5.62498H10.8334C12.4225 5.62498 13.5517 5.62664 14.4084 5.74164C15.2459 5.85414 15.7292 6.06581 16.0817 6.41831C16.4975 6.83331 16.7117 7.42414 16.8067 8.54164H17.375ZM8.28669 4.37498H10.88C11.3109 4.37498 11.7159 4.37498 12.0967 4.37748L10.7084 3.45664C10.0417 3.01498 9.12502 3.01498 8.45835 3.45664L7.06919 4.37748C7.45085 4.37498 7.85585 4.37498 8.28585 4.37498H8.28669Z" fill="white"/>
<path d="M5 7.70831C4.83424 7.70831 4.67527 7.77416 4.55806 7.89137C4.44085 8.00858 4.375 8.16755 4.375 8.33331C4.375 8.49907 4.44085 8.65804 4.55806 8.77525C4.67527 8.89246 4.83424 8.95831 5 8.95831H8.33333C8.49909 8.95831 8.65806 8.89246 8.77527 8.77525C8.89249 8.65804 8.95833 8.49907 8.95833 8.33331C8.95833 8.16755 8.89249 8.00858 8.77527 7.89137C8.65806 7.77416 8.49909 7.70831 8.33333 7.70831H5Z" fill="white"/>
<path d="M15.8334 11.6666C15.8334 11.8877 15.7456 12.0996 15.5893 12.2559C15.433 12.4122 15.221 12.5 15 12.5C14.779 12.5 14.567 12.4122 14.4108 12.2559C14.2545 12.0996 14.1667 11.8877 14.1667 11.6666C14.1667 11.4456 14.2545 11.2337 14.4108 11.0774C14.567 10.9211 14.779 10.8333 15 10.8333C15.221 10.8333 15.433 10.9211 15.5893 11.0774C15.7456 11.2337 15.8334 11.4456 15.8334 11.6666Z" fill="white"/>
</svg>
