<svg width="24" height="24" viewBox="0 0 24 24" fill="none" xmlns="http://www.w3.org/2000/svg">
<path fill-rule="evenodd" clip-rule="evenodd" d="M7.598 4.487C7.865 3.177 9.031 2.25 10.366 2.25H13.634C14.969 2.25 16.134 3.177 16.402 4.487C16.4315 4.63125 16.5088 4.76137 16.6212 4.85642C16.7337 4.95147 16.8748 5.00591 17.022 5.011H17.055C18.458 5.073 19.536 5.245 20.436 5.836C21.003 6.208 21.491 6.686 21.871 7.245C22.344 7.939 22.552 8.737 22.652 9.701C22.75 10.644 22.75 11.825 22.75 13.321V13.406C22.75 14.902 22.75 16.084 22.652 17.026C22.552 17.99 22.344 18.788 21.871 19.483C21.4898 20.0423 21.0022 20.5211 20.436 20.892C19.733 21.353 18.926 21.557 17.948 21.654C16.99 21.75 15.789 21.75 14.263 21.75H9.737C8.211 21.75 7.01 21.75 6.052 21.654C5.074 21.557 4.267 21.354 3.564 20.892C2.99771 20.5208 2.51009 20.0417 2.129 19.482C1.656 18.788 1.448 17.99 1.348 17.026C1.25 16.084 1.25 14.902 1.25 13.406V13.321C1.25 11.825 1.25 10.644 1.348 9.701C1.448 8.737 1.656 7.939 2.129 7.245C2.51009 6.68532 2.99771 6.2062 3.564 5.835C4.464 5.245 5.542 5.073 6.945 5.012L6.962 5.011H6.978C7.12516 5.00591 7.26632 4.95147 7.37879 4.85642C7.49125 4.76137 7.56846 4.63125 7.598 4.487ZM10.366 3.75C9.726 3.75 9.189 4.193 9.068 4.786C8.873 5.746 8.021 6.502 6.996 6.511C5.648 6.571 4.926 6.736 4.386 7.09C3.98488 7.35322 3.63934 7.69264 3.369 8.089C3.093 8.494 2.927 9.013 2.839 9.856C2.751 10.712 2.75 11.816 2.75 13.364C2.75 14.912 2.75 16.015 2.84 16.871C2.927 17.714 3.093 18.233 3.37 18.639C3.638 19.033 3.983 19.373 4.387 19.637C4.804 19.911 5.338 20.076 6.201 20.162C7.075 20.249 8.201 20.25 9.778 20.25H14.222C15.798 20.25 16.924 20.25 17.799 20.162C18.662 20.076 19.196 19.912 19.613 19.638C20.017 19.373 20.363 19.033 20.631 18.638C20.907 18.233 21.073 17.714 21.161 16.871C21.249 16.015 21.25 14.911 21.25 13.364C21.25 11.816 21.25 10.712 21.16 9.856C21.073 9.013 20.907 8.494 20.63 8.089C20.36 7.69212 20.0144 7.35231 19.613 7.089C19.075 6.736 18.353 6.571 17.003 6.511C15.979 6.501 15.127 5.747 14.932 4.786C14.868 4.49027 14.7039 4.22569 14.4674 4.03694C14.2309 3.84819 13.9366 3.74684 13.634 3.75H10.366ZM12 9.25C12.1989 9.25 12.3897 9.32902 12.5303 9.46967C12.671 9.61032 12.75 9.80109 12.75 10V12.25H15C15.1989 12.25 15.3897 12.329 15.5303 12.4697C15.671 12.6103 15.75 12.8011 15.75 13C15.75 13.1989 15.671 13.3897 15.5303 13.5303C15.3897 13.671 15.1989 13.75 15 13.75H12.75V16C12.75 16.1989 12.671 16.3897 12.5303 16.5303C12.3897 16.671 12.1989 16.75 12 16.75C11.8011 16.75 11.6103 16.671 11.4697 16.5303C11.329 16.3897 11.25 16.1989 11.25 16V13.75H9C8.80109 13.75 8.61032 13.671 8.46967 13.5303C8.32902 13.3897 8.25 13.1989 8.25 13C8.25 12.8011 8.32902 12.6103 8.46967 12.4697C8.61032 12.329 8.80109 12.25 9 12.25H11.25V10C11.25 9.80109 11.329 9.61032 11.4697 9.46967C11.6103 9.32902 11.8011 9.25 12 9.25ZM17.25 10C17.25 9.80109 17.329 9.61032 17.4697 9.46967C17.6103 9.32902 17.8011 9.25 18 9.25H19C19.1989 9.25 19.3897 9.32902 19.5303 9.46967C19.671 9.61032 19.75 9.80109 19.75 10C19.75 10.1989 19.671 10.3897 19.5303 10.5303C19.3897 10.671 19.1989 10.75 19 10.75H18C17.8011 10.75 17.6103 10.671 17.4697 10.5303C17.329 10.3897 17.25 10.1989 17.25 10Z" fill="#D2D2D4"/>
</svg>
