<svg width="24" height="24" viewBox="0 0 24 24" fill="none" xmlns="http://www.w3.org/2000/svg">
<path fill-rule="evenodd" clip-rule="evenodd" d="M12 1.25C10.7402 1.25 9.53204 1.75044 8.64124 2.64124C7.75045 3.53204 7.25 4.74022 7.25 6C7.25 7.25978 7.75045 8.46796 8.64124 9.35876C9.53204 10.2496 10.7402 10.75 12 10.75C13.2598 10.75 14.468 10.2496 15.3588 9.35876C16.2496 8.46796 16.75 7.25978 16.75 6C16.75 4.74022 16.2496 3.53204 15.3588 2.64124C14.468 1.75044 13.2598 1.25 12 1.25ZM8.75 6C8.75 5.13805 9.09241 4.3114 9.7019 3.7019C10.3114 3.09241 11.138 2.75 12 2.75C12.862 2.75 13.6886 3.09241 14.2981 3.7019C14.9076 4.3114 15.25 5.13805 15.25 6C15.25 6.86195 14.9076 7.6886 14.2981 8.2981C13.6886 8.90759 12.862 9.25 12 9.25C11.138 9.25 10.3114 8.90759 9.7019 8.2981C9.09241 7.6886 8.75 6.86195 8.75 6Z" fill="white"/>
<path d="M17 15.25C16.8011 15.25 16.6103 15.329 16.4697 15.4697C16.329 15.6103 16.25 15.8011 16.25 16C16.25 16.1989 16.329 16.3897 16.4697 16.5303C16.6103 16.671 16.8011 16.75 17 16.75H19C19.1989 16.75 19.3897 16.671 19.5303 16.5303C19.671 16.3897 19.75 16.1989 19.75 16C19.75 15.8011 19.671 15.6103 19.5303 15.4697C19.3897 15.329 19.1989 15.25 19 15.25H17Z" fill="white"/>
<path fill-rule="evenodd" clip-rule="evenodd" d="M12.0001 12.25C12.9691 12.25 13.9021 12.342 14.7751 12.513C15.266 12.0595 15.8471 11.7148 16.4803 11.5012C17.1136 11.2877 17.7848 11.2102 18.4501 11.2738C19.1153 11.3373 19.7597 11.5406 20.3411 11.8703C20.9224 12.1999 21.4277 12.6485 21.8238 13.1868C22.2199 13.725 22.498 14.3408 22.6398 14.9939C22.7817 15.647 22.7842 16.3226 22.647 16.9767C22.5099 17.6308 22.2363 18.2486 21.8442 18.7897C21.452 19.3308 20.95 19.7831 20.3711 20.117C19.9971 20.927 19.2991 21.57 18.1201 22.009C16.8101 22.496 14.8681 22.75 12.0001 22.75C9.97406 22.75 8.42006 22.623 7.22606 22.381C6.03606 22.141 5.15606 21.776 4.52606 21.264C3.24806 20.222 3.24906 18.764 3.25006 17.602V17.5C3.25006 15.866 4.42006 14.54 5.97606 13.664C7.55606 12.776 9.68606 12.25 12.0001 12.25ZM4.75006 17.5C4.75006 16.649 5.37206 15.725 6.71106 14.972C8.02706 14.232 9.89506 13.75 12.0011 13.75C12.6061 13.75 13.1941 13.79 13.7561 13.865C13.4181 14.5369 13.2446 15.2795 13.2497 16.0316C13.2548 16.7838 13.4384 17.5239 13.7854 18.1912C14.1324 18.8585 14.6328 19.4339 15.2456 19.8701C15.8583 20.3062 16.5659 20.5907 17.3101 20.7C16.2401 21.037 14.5771 21.25 12.0001 21.25C10.0251 21.25 8.58006 21.125 7.52306 20.911C6.46306 20.697 5.84306 20.402 5.47306 20.101C4.78906 19.544 4.75006 18.808 4.75006 17.5ZM18.0001 12.75C17.1381 12.75 16.3115 13.0924 15.702 13.7019C15.0925 14.3114 14.7501 15.138 14.7501 16C14.7501 16.8619 15.0925 17.6886 15.702 18.2981C16.3115 18.9076 17.1381 19.25 18.0001 19.25C18.862 19.25 19.6887 18.9076 20.2982 18.2981C20.9076 17.6886 21.2501 16.8619 21.2501 16C21.2501 15.138 20.9076 14.3114 20.2982 13.7019C19.6887 13.0924 18.862 12.75 18.0001 12.75Z" fill="white"/>
</svg>
